<?xml version="1.0" encoding="UTF-8" standalone="no"?><!DOCTYPE svg PUBLIC "-//W3C//DTD SVG 1.1//EN" "http://www.w3.org/Graphics/SVG/1.1/DTD/svg11.dtd"><svg width="100%" height="100%" viewBox="0 0 510 510" version="1.1" xmlns="http://www.w3.org/2000/svg" xmlns:xlink="http://www.w3.org/1999/xlink" xml:space="preserve" style="fill-rule:evenodd;clip-rule:evenodd;stroke-linejoin:round;stroke-miterlimit:1.41421;"><circle cx="255" cy="255" r="255" style="fill:#d24646;"/><clipPath id="_clip1"><circle cx="255" cy="255" r="255"/></clipPath><g clip-path="url(#_clip1)"><g><path d="M140.786,212.917c3.601,2.541 14.457,10.089 32.569,22.64c18.112,12.551 31.987,22.215 41.626,28.992c1.059,0.743 3.309,2.358 6.751,4.847c3.442,2.49 6.302,4.503 8.578,6.039c2.278,1.534 5.031,3.256 8.263,5.162c3.231,1.904 6.277,3.337 9.136,4.285c2.861,0.956 5.508,1.429 7.944,1.429l0.32,0c2.436,0 5.084,-0.474 7.945,-1.429c2.858,-0.948 5.907,-2.382 9.135,-4.285c3.23,-1.908 5.983,-3.628 8.261,-5.162c2.277,-1.536 5.135,-3.549 8.579,-6.039c3.441,-2.492 5.694,-4.104 6.753,-4.847c9.742,-6.777 34.529,-23.99 74.353,-51.635c7.731,-5.4 14.191,-11.915 19.38,-19.541c5.193,-7.624 7.787,-15.621 7.787,-23.987c0,-6.992 -2.517,-12.977 -7.549,-17.954c-5.031,-4.979 -10.989,-7.467 -17.872,-7.467l-233.866,0c-8.155,0 -14.431,2.753 -18.827,8.26c-4.395,5.508 -6.592,12.393 -6.592,20.654c0,6.672 2.913,13.903 8.738,21.688c5.824,7.785 12.022,13.902 18.588,18.35Z" style="fill:#fff;fill-rule:nonzero;"/><path d="M382.276,229.915c-34.737,23.512 -61.114,41.784 -79.117,54.813c-6.038,4.447 -10.935,7.918 -14.696,10.406c-3.762,2.489 -8.764,5.031 -15.014,7.624c-6.248,2.598 -12.071,3.893 -17.474,3.893l-0.162,0l-0.159,0c-5.402,0 -11.228,-1.295 -17.476,-3.893c-6.249,-2.593 -11.254,-5.135 -15.014,-7.624c-3.759,-2.488 -8.658,-5.959 -14.695,-10.406c-14.3,-10.485 -40.62,-28.758 -78.961,-54.813c-6.039,-4.022 -11.388,-8.633 -16.048,-13.822l0,126.145c0,6.994 2.488,12.976 7.466,17.954c4.978,4.98 10.963,7.469 17.954,7.469l233.867,0c6.99,0 12.974,-2.489 17.953,-7.469c4.98,-4.98 7.466,-10.959 7.466,-17.954l0,-126.145c-4.555,5.082 -9.849,9.692 -15.89,13.822Z" style="fill:#fff;fill-rule:nonzero;"/></g></g></svg>