<?xml version="1.0" encoding="UTF-8" standalone="no"?><!DOCTYPE svg PUBLIC "-//W3C//DTD SVG 1.1//EN" "http://www.w3.org/Graphics/SVG/1.1/DTD/svg11.dtd"><svg width="100%" height="100%" viewBox="0 0 400 400" version="1.1" xmlns="http://www.w3.org/2000/svg" xmlns:xlink="http://www.w3.org/1999/xlink" xml:space="preserve" style="fill-rule:evenodd;clip-rule:evenodd;stroke-linejoin:round;stroke-miterlimit:1.41421;"><circle cx="200" cy="200" r="200" style="fill:#fa2a01;"/><clipPath id="_clip1"><circle cx="200" cy="200" r="200"/></clipPath><g clip-path="url(#_clip1)"><g><path d="M249.208,221.869c-11.241,40.871 -48.655,70.928 -93.024,70.928c-53.246,0 -96.475,-43.286 -96.475,-96.603c0,-53.317 43.229,-96.604 96.475,-96.604c46.524,0 85.4,33.047 94.475,76.957l-46.155,0c-2.07,-9.09 -5.592,-17.521 -10.963,-23.367c-9.668,-10.522 -23.383,-15.061 -38.122,-15.061c0,0 0,0 0,0c-29.479,0 -53.412,26.047 -53.412,58.131c0,32.083 23.933,58.13 53.412,58.13c14.192,0 27.286,-2.73 36.856,-12.572c5.297,-5.448 9.009,-12.303 11.366,-19.939l45.567,0Z" style="fill:#fff;"/><path d="M272.927,116.093l26.828,-12.205l38.94,91.164l-39.281,90.544l-26.369,-11.918l33.703,-78.895l-33.821,-78.69Z" style="fill:#fff;"/></g></g></svg>