<svg width="100%" height="100%" viewBox="0 0 503 503" version="1.1" xmlns="http://www.w3.org/2000/svg" xmlns:xlink="http://www.w3.org/1999/xlink" xml:space="preserve" style="fill-rule:evenodd;clip-rule:evenodd;stroke-linejoin:round;stroke-miterlimit:1.41421;"><circle cx="251.115" cy="251.115" r="251.115" style="fill:#10946a;"/><clipPath id="_clip1"><circle cx="251.115" cy="251.115" r="251.115"/></clipPath><g clip-path="url(#_clip1)"><path d="M339.941,225.331c0,-2.173 -1.002,-4.225 -2.715,-5.561c-12.744,-9.938 -66.661,-51.986 -82.5,-64.339c-2.575,-2.008 -6.192,-1.985 -8.742,0.054c-15.527,12.421 -67.959,54.362 -80.364,64.285c-1.673,1.339 -2.647,3.365 -2.647,5.507c0,16.884 0,92.029 0,115.535c0,1.871 0.743,3.664 2.065,4.987c1.323,1.322 3.116,2.065 4.987,2.065c11.803,0 35.425,0 47.23,0c1.871,0 3.665,-0.743 4.988,-2.066c1.322,-1.323 2.065,-3.117 2.065,-4.988c-0.007,-19.216 -0.025,-71.055 -0.025,-71.055l54.696,-0.225c0,0 0.11,52.056 0.151,71.297c0.008,3.889 3.163,7.037 7.052,7.037c11.695,0 35.002,0 46.707,0c1.87,0 3.664,-0.743 4.987,-2.065c1.322,-1.323 2.065,-3.116 2.065,-4.987c0,-23.481 0,-98.492 0,-115.481Z" style="fill:#fff;fill-opacity:0.941177;"/></g></svg>